# Rhino

g object_1
v -17.96592903137207 -21.8963565826416 0
v -17.96592903137207 -21.8963565826416 -24.71963691711426
v -17.96592903137207 -5.565706253051758 0
v -17.96592903137207 -5.565706253051758 -24.71963691711426
v -17.96592903137207 -5.565706253051758 0
v -17.96592903137207 -5.565706253051758 -24.71963691711426
v 27.26025390625 -5.565706253051758 0
v 27.26025390625 -5.565706253051758 -24.71963691711426
v 27.26025390625 -5.565706253051758 0
v 27.26025390625 -5.565706253051758 -24.71963691711426
v 27.26025390625 -21.8963565826416 0
v 27.26025390625 -21.8963565826416 -24.71963691711426
v 27.26025390625 -21.8963565826416 0
v 27.26025390625 -21.8963565826416 -24.71963691711426
v -17.96592903137207 -21.8963565826416 0
v -17.96592903137207 -21.8963565826416 -24.71963691711426
v -17.96592903137207 -21.8963565826416 0
v -17.96592903137207 -5.565706253051758 0
v 27.26025390625 -5.565706253051758 0
v 27.26025390625 -21.8963565826416 0
v -17.96592903137207 -21.8963565826416 -24.71963691711426
v -17.96592903137207 -5.565706253051758 -24.71963691711426
v 27.26025390625 -5.565706253051758 -24.71963691711426
v 27.26025390625 -21.8963565826416 -24.71963691711426
vt 0 0
vt 0 0.7153988480567932
vt 0.1326469331979752 0
vt 0.1326469331979752 0.7153988480567932
vt 0.1326469331979752 0
vt 0.1326469331979752 0.7153988480567932
vt 0.5 0
vt 0.5 0.7153988480567932
vt 0.5 0
vt 0.5 0.7153988480567932
vt 0.632646918296814 0
vt 0.632646918296814 0.7153988480567932
vt 0.632646918296814 0
vt 0.632646918296814 0.7153988480567932
vt 1 0
vt 1 0.7153988480567932
vt 0.367353081703186 1
vt 0.367353081703186 0.7153995633125305
vt 0 0.7153995633125305
vt 0 1
vt 1 0.7153995633125305
vt 1 1
vt 0.632646918296814 1
vt 0.632646918296814 0.7153995633125305
vn -1 0 0
vn -1 0 0
vn -1 0 0
vn -1 0 0
vn 0 1 0
vn 0 1 0
vn 0 1 0
vn 0 1 0
vn 1 0 0
vn 1 0 0
vn 1 0 0
vn 1 0 0
vn 0 -1 0
vn 0 -1 0
vn 0 -1 0
vn 0 -1 0
vn 0 0 1
vn 0 0 1
vn 0 0 1
vn 0 0 1
vn 0 0 -1
vn 0 0 -1
vn 0 0 -1
vn 0 0 -1
f 1/1/1 3/3/3 4/4/4 2/2/2
f 5/5/5 7/7/7 8/8/8 6/6/6
f 9/9/9 11/11/11 12/12/12 10/10/10
f 13/13/13 15/15/15 16/16/16 14/14/14
f 18/18/18 17/17/17 20/20/20
f 20/20/20 19/19/19 18/18/18
f 22/22/22 24/24/24 21/21/21
f 24/24/24 22/22/22 23/23/23
g object_2
v -27.14161682128906 19.89172744750977 0
v -27.14161682128906 19.89172744750977 -10.72896671295166
v -27.14161682128906 29.9897518157959 0
v -27.14161682128906 29.9897518157959 -10.72896671295166
v -27.14161682128906 29.9897518157959 0
v -27.14161682128906 29.9897518157959 -10.72896671295166
v -20.33056449890137 29.9897518157959 0
v -20.33056449890137 29.9897518157959 -10.72896671295166
v -20.33056449890137 29.9897518157959 0
v -20.33056449890137 29.9897518157959 -10.72896671295166
v -20.33056449890137 19.89172744750977 0
v -20.33056449890137 19.89172744750977 -10.72896671295166
v -20.33056449890137 19.89172744750977 0
v -20.33056449890137 19.89172744750977 -10.72896671295166
v -27.14161682128906 19.89172744750977 0
v -27.14161682128906 19.89172744750977 -10.72896671295166
v -27.14161682128906 19.89172744750977 0
v -27.14161682128906 29.9897518157959 0
v -20.33056449890137 29.9897518157959 0
v -20.33056449890137 19.89172744750977 0
v -27.14161682128906 19.89172744750977 -10.72896671295166
v -27.14161682128906 29.9897518157959 -10.72896671295166
v -20.33056449890137 29.9897518157959 -10.72896671295166
v -20.33056449890137 19.89172744750977 -10.72896671295166
vt 0 0
vt 0 0.72029709815979
vt 0.2985977530479431 0
vt 0.2985977530479431 0.72029709815979
vt 0.2985977530479431 0
vt 0.2985977530479431 0.72029709815979
vt 0.5 0
vt 0.5 0.72029709815979
vt 0.5 0
vt 0.5 0.72029709815979
vt 0.7985977530479431 0
vt 0.7985977530479431 0.72029709815979
vt 0.7985977530479431 0
vt 0.7985977530479431 0.72029709815979
vt 1 0
vt 1 0.72029709815979
vt 0 1
vt 0.2985977530479431 1
vt 0.2985977530479431 0.7202978134155273
vt 0 0.7202978134155273
vt 0.7014022469520569 0.7202978134155273
vt 1 0.7202978134155273
vt 1 1
vt 0.7014022469520569 1
vn -1 0 0
vn -1 0 0
vn -1 0 0
vn -1 0 0
vn 0 1 0
vn 0 1 0
vn 0 1 0
vn 0 1 0
vn 1 0 0
vn 1 0 0
vn 1 0 0
vn 1 0 0
vn 0 -1 0
vn 0 -1 0
vn 0 -1 0
vn 0 -1 0
vn 0 0 1
vn 0 0 1
vn 0 0 1
vn 0 0 1
vn 0 0 -1
vn 0 0 -1
vn 0 0 -1
vn 0 0 -1
f 25/25/25 27/27/27 28/28/28 26/26/26
f 29/29/29 31/31/31 32/32/32 30/30/30
f 33/33/33 35/35/35 36/36/36 34/34/34
f 37/37/37 39/39/39 40/40/40 38/38/38
f 42/42/42 41/41/41 44/44/44
f 44/44/44 43/43/43 42/42/42
f 46/46/46 48/48/48 45/45/45
f 48/48/48 46/46/46 47/47/47
